<?xml version="1.0" encoding="UTF-8"?>
<svg id="Vrstva_2" data-name="Vrstva 2" xmlns="http://www.w3.org/2000/svg" viewBox="0 0 743.75 321.98">
  <defs>
    <style>
      .cls-1 {
        stroke-width: 0px;
      }

      .cls-2 {
        fill: none;
        stroke: #000;
        stroke-linecap: round;
        stroke-linejoin: round;
        stroke-width: 2px;
      }
    </style>
  </defs>
  <g id="Vrstva_2-2" data-name="Vrstva 2">
    <g>
      <g>
        <path class="cls-1" d="m361.95,97.97c-23.62-2.25-46.7-4.45-69.78-6.65.02-.39.03-.77.05-1.16,23.21.94,46.41,1.86,69.84,2.81v-6.2c-25.73-1.64-51.25-3.26-76.76-4.89v-.41h76.65v-8.38h-81.61c0-.3-.02-.59-.03-.91,38.99-2.44,77.98-4.87,117.2-7.32v108.18c15.88,3.87,32.01,4.36,48.24,1.19,7.14-1.39,14.6-2.08,21.28-4.67,11.36-4.4,21.96-1.8,32.7,1.33,4.88,1.42,6.38,4.47,2.97,8.15-4.55,4.92-9.76,9.9-15.7,12.8-26.3,12.87-54.26,19.11-83.46,14.07-10.95-1.89-21.25-7.82-31.67-12.27-36.08-15.41-72.1-30.99-108.15-46.5-16.03-6.9-32.08-13.77-48.12-20.69-.87-.37-1.61-.98-3.48-2.15,4.11-.66,7.11-1.12,10.3-1.64-.52-6.26-2.45-13.32,4.36-16.74,2.97-1.48,9.04-1.12,11.3.95,6.16,5.62,5.36,13.18,1.88,20.98,22.38,6.87,44.44,13.65,67.08,20.61,1.3-9.84.88-19.98,12.59-24.87-11.69-2.28-22.67-4.42-33.65-6.56.03-.28.08-.56.11-.84,25.05,3.45,50.11,6.9,75.16,10.37,1.83-5.76,1.66-5.95-4.19-6.89-22.61-3.59-45.21-7.23-67.69-11.9,24.01,2.53,48.02,5.06,72.48,7.63.19-2.08.35-3.72.57-6.12-25.73-3.31-51.18-6.57-76.63-9.84.02-.28.05-.56.06-.84,25.21,1.86,50.42,3.72,76.05,5.59v-6.26l.05.02Zm-16.44,62.31c5.86,1.76,11.11,3.36,16.6,5.01v-33.55c-7.12-1.37-14.08-2.72-22.15-4.26,6.92,10.74,8.36,21.19,5.54,32.8h0Zm-13.73-11.21c-1.83-5.21-2.94-10.62-5.54-15.21-3.38-5.96-9.35-5.43-12.89.48-4.64,7.74-3.71,21.11,1.94,28.15,3.65,4.54,8.66,4.82,11.61-.11,2.31-3.84,3.19-8.51,4.88-13.33v.02Zm-97.52-31.48c-.51-1.81-.76-4.26-1.9-6.2-.84-1.45-2.89-3.19-4.28-3.08-1.41.09-3.43,2.11-3.81,3.62-.68,2.76-1.11,6.01-.22,8.59.82,2.37,3.49,4.14,5.36,6.17,1.47-2.09,3-4.15,4.38-6.31.38-.61.28-1.51.47-2.76v-.03Z"/>
        <path class="cls-1" d="m402.31,48.88c-.36-4.23-2.07-5.06-5.56-4.62-39.46,4.93-78.94,9.73-118.42,14.52-2.07.25-4.17.23-6.35-.69,41.75-6.2,83.5-12.41,125.49-18.64-.33-4-1.69-5.4-5.61-4.78-39.27,6.14-78.56,12.12-117.86,18.13-1.72.27-3.48.27-5.34-.66,41.36-7.42,82.73-14.85,124.06-22.26-.95-4.51-3.21-5.11-7.06-4.39-39.03,7.32-78.1,14.46-117.15,21.61-1.45.27-2.99.22-4.61-.64,41.01-8.63,82.02-17.25,123.08-25.9-1.85-5.64-5.48-5.85-10.02-4.87-35.34,7.63-70.68,15.18-106.03,22.73-2.04.44-4.09.75-6.43-.22,36.97-8.96,73.92-17.91,110.88-26.87-.05-.66-.09-1.3-.14-1.95-3.1,0-6.35-.58-9.29.09-31.59,7.21-63.13,14.61-94.69,21.95-1.82.42-3.68.67-5.81-.23,11.11-2.97,22.21-5.96,33.32-8.9,25.23-6.67,50.2-14.52,75.75-19.66,32.65-6.57,63.57-1.55,87.96,23.01,12.32,12.41,22.67,26.73,34.98,41.47-11.53-1.41-20.96-2.78-30.43-3.64-14.71-1.34-29.45-2.33-44.17-3.5-5.86-.47-11.83-.53-16.4-5.23-.77-.8-2.5-1.12-3.71-1.03-21.78,1.87-43.57,3.86-65.34,5.79-19.81,1.76-39.64,3.51-59.46,5.23-1.72.16-3.46.02-5.26-.81,43.08-5,86.14-10.01,129.65-15.05h-.02Z"/>
        <path class="cls-1" d="m407.14,63.17c17,.72,33.28,1.06,49.52,2.19,11.74.81,23.4,2.9,35.13,3.93,4.3.37,5.28,2.31,5.31,5.92.09,14,.41,27.99.28,42-.02,1.83-1.69,4.57-3.32,5.28-3.89,1.69-8.14,2.89-12.35,3.47-21.18,2.84-42.42,2.4-63.55-.36-8.58-1.12-12.56-6.51-12.34-14.94.43-15.49.87-30.98,1.34-47.48h-.03Z"/>
        <path class="cls-1" d="m411.43,133.88c13.49,5.78,28.06,5.31,37.28,17.24-13.78,4.9-29.79-2.05-37.28-17.24Z"/>
        <path class="cls-1" d="m488.26,141.92c2.23-3.54,4.44-7.09,6.67-10.63.71.41,1.41.81,2.12,1.22-2.09,3.7-4.15,7.38-6.24,11.09l-2.54-1.67Z"/>
        <path class="cls-1" d="m319.09,134.3c-2.83,9.96-3.03,18.49,4.96,25.28-4.49,1.8-5.78,1.44-8.12-2.14-4.41-6.71-3.35-17.25,3.16-23.14h0Z"/>
        <path class="cls-2" d="m374.13,6.07c-9.86,2.05-19.79,3.84-29.59,6.18-26.27,6.29-52.49,12.8-78.73,19.24"/>
        <path class="cls-2" d="m406.09,49.6c-8.29,1.36-16.54,3.08-24.86,4.01-16.14,1.81-32.35,3.17-48.53,4.76-15.78,1.55-31.56,3.12-47.36,4.67-4.53.44-9.07.78-13.62,1.17"/>
        <path class="cls-2" d="m402.53,39.09c-7.5,1.75-14.91,3.98-22.51,5.17-18.1,2.83-36.27,5.26-54.45,7.65-14.58,1.92-29.19,3.54-43.79,5.29-3.35.41-6.71.78-10.06,1.17"/>
        <path class="cls-2" d="m397.81,29.74c-6.71,1.75-13.33,3.93-20.14,5.18-19.49,3.54-39.03,6.84-58.59,9.98-16.93,2.72-33.93,5.11-50.9,7.63"/>
        <path class="cls-2" d="m391.88,20.39c-8.09,2.14-16.1,4.67-24.28,6.35-15.53,3.2-31.18,5.79-46.74,8.88-17.98,3.56-35.91,7.38-53.88,11.04-1.14.23-2.35.03-3.54.03"/>
        <path class="cls-2" d="m380.05,11.03c-6.51,2.14-12.91,4.76-19.56,6.34-17.49,4.17-35.09,7.92-52.67,11.77-14.39,3.15-28.8,6.25-43.21,9.35"/>
        <path class="cls-2" d="m213.72,124.99c4.14.97,8.29,1.9,12.43,2.94,1.99.5,3.95,1.16,5.92,1.73"/>
        <path class="cls-2" d="m313.15,164.73c3.74,1.56,7.5,3.12,11.25,4.67"/>
        <path class="cls-2" d="m363.47,84.67c-26.63-.97-53.27-1.95-79.9-2.92"/>
        <path class="cls-2" d="m363.47,106.87c-14.01-1.36-28.02-2.73-42.02-4.09-12.23-1.19-24.47-2.34-36.7-3.51"/>
        <path class="cls-2" d="m362.88,117.97c-13.62-1.75-27.22-3.54-40.84-5.25-11.25-1.41-22.5-2.73-33.74-4.11"/>
        <path class="cls-2" d="m367.62,72.97c-3.95-.97-7.9-2.83-11.83-2.76-17.57.23-35.12,1.05-52.68,1.59-8.09.25-16.18.41-24.26.59"/>
        <path class="cls-2" d="m363.47,95.19c-15.39-.78-30.79-1.51-46.18-2.36-8.88-.48-17.76-1.16-26.63-1.73"/>
        <path class="cls-2" d="m234.43,108.04c-2.76-.39-7.31-1.94-7.96-.95-2.07,3.12-3.03,7.12-3.76,10.91-.46,2.4.27,5.04.47,7.57"/>
        <path class="cls-2" d="m495.47,66.56c-2.37-1.36-4.74-2.73-7.11-4.09"/>
        <path class="cls-2" d="m307.83,149.54c.98-4.67,1.55-9.49,3.06-13.99,1.79-5.31,5.1-9.41,11.72-8.81"/>
        <path class="cls-2" d="m363.47,129.09c-7.3-.97-14.58-2.12-21.91-2.81-1.9-.17-3.93,1.05-5.91,1.64"/>
        <path class="cls-2" d="m324.4,125.57c-1.36-4.75-5.8-3.39-8.91-3.97-10.2-1.89-20.49-3.23-30.76-4.79"/>
        <path class="cls-2" d="m412.59,136.1c2.16,1.36,4.34,2.73,6.51,4.09"/>
        <path class="cls-2" d="m319.08,135.5c-6.95,7.99-4.27,21.56,4.74,23.97"/>
        <path class="cls-2" d="m495.47,132.01c-1.77,3.51-3.55,7.01-5.32,10.52"/>
      </g>
      <g>
        <path class="cls-1" d="m402.64,321.64v-3.85c0-31.54.06-63.08-.08-94.62-.01-3.58.97-4.61,4.58-4.59,25.21.15,50.42.05,75.63.1,9.55.02,16.81,5.31,18.41,13.73.64,3.38.47,6.96.3,10.43-.38,7.53,1.3,15.19-1.5,22.6-.34.89.65,2.59,1.45,3.56,3.23,3.93,4.74,8.3,4.61,13.43-.2,7.6,0,15.21-.06,22.81-.08,9.02-7.32,16.63-16.29,16.66-28.46.11-56.91.03-85.37.02-.36,0-.72-.12-1.68-.28Zm51.57-10.96c11.1,0,22.2.02,33.3,0,5.14-.01,7.17-2.1,7.19-7.31.02-6.98.02-13.95,0-20.93-.02-5.35-2.14-7.56-7.4-7.56-21.95-.02-43.91-.02-65.86,0-5.19,0-7.3,2.07-7.33,7.2-.05,6.98-.02,13.95,0,20.93.01,5.72,1.93,7.67,7.56,7.67,10.85.01,21.7,0,32.55,0h-.01Zm-2.25-47.05c10.23,0,20.46.01,30.68,0,5.64,0,7.57-1.94,7.6-7.66.04-6.23.06-12.46-.01-18.69-.06-4.9-2.23-7.17-7.06-7.18-20.71-.05-41.41-.05-62.12,0-4.88,0-6.92,2.23-6.95,7.21-.04,6.35-.03,12.71,0,19.06.02,5.24,2,7.24,7.18,7.25,10.23.02,20.46,0,30.68,0h0Z"/>
        <path class="cls-1" d="m743.35,239.4h-10.79c-.05-.78-.1-1.38-.12-1.98-.18-5.4-2.1-7.32-7.59-7.35-7.74-.05-15.48,0-23.22,0h-40.83c-7.43,0-8.82,1.35-8.82,8.59,0,6.11-.01,12.22,0,18.33.01,6.18,1.32,7.53,7.42,7.54,21.6.02,43.2,0,64.8,0,12.67,0,19.5,6.75,19.52,19.32.01,6.86.08,13.72-.02,20.58-.15,10.51-7.28,17.51-17.76,17.52-22.6.02-45.2.02-67.8,0-11.5,0-19.22-9.1-17.4-20.71h10.62c.16.24.39.43.41.65.95,8.41,1.38,8.8,9.87,8.8h62.93c5.9,0,7.83-1.92,7.85-7.79.02-6.24,0-12.47,0-18.71s-1.88-8.17-8.32-8.18c-21.85-.02-43.7-.01-65.55,0-11.14,0-18.16-6.99-18.23-18.22-.04-6.86-.03-13.72,0-20.58.05-10.92,6.87-18.35,17.78-18.46,22.6-.23,45.2-.26,67.8,0,11.95.14,19.12,8.94,17.43,20.67h.02Z"/>
        <path class="cls-1" d="m274.47,310.69v11.27h-3.65c-20.98,0-41.96.01-62.94,0-10.49,0-17.97-7.32-18.03-17.8-.08-15.84-.09-31.69,0-47.53.06-10.21,7.63-17.69,17.79-17.73,16.36-.05,32.72-.04,49.08,0,10.47.03,17.79,7.43,17.81,17.96.02,9.36-.03,18.71-.05,28.07,0,.23-.13.46-.4,1.32h-4.11c-21.36,0-42.71.11-64.07-.1-3.95-.04-4.98,1.17-4.69,4.86.31,3.97.02,7.98.08,11.97.08,5.56,2.23,7.7,7.75,7.71,20.36.02,40.71,0,61.07,0h4.36Zm-42.29-36.03c9.11,0,18.21-.1,27.31.06,2.87.05,3.68-.94,3.57-3.66-.18-4.48-.02-8.97-.06-13.45-.04-4.99-2.3-7.38-7.27-7.4-15.72-.06-31.43-.06-47.15,0-4.81.02-7.14,2.31-7.26,7.08-.12,4.73.06,9.47-.07,14.2-.07,2.42.76,3.26,3.23,3.23,9.23-.12,18.46-.05,27.69-.05h0Z"/>
        <path class="cls-1" d="m522.05,218.8h11.06v84.08c0,5.99,1.8,7.8,7.77,7.8h65.19c5.67,0,7.57-1.91,7.57-7.68.02-26.7.07-53.39-.07-80.09-.02-3.47.98-4.48,4.42-4.33,8.25.36,7.14-1.09,7.16,7.17.05,25.2.05,50.4-.03,75.6-.01,3.08-.26,6.3-1.16,9.22-2.14,6.95-8.52,11.37-15.87,11.38-23.23.03-46.46.05-69.68,0-8.86-.02-16.52-7.34-16.55-15.99-.09-28.32-.03-56.63-.03-84.95,0-.6.11-1.2.21-2.19v-.02Z"/>
        <path class="cls-1" d="m115.51,321.78h-11.1v-63.61c0-5.93-2.08-7.98-8.15-7.99-15.1-.02-30.21-.02-45.31,0-6.25,0-8.19,2-8.2,8.32,0,19.58,0,39.15,0,58.73v4.4h-11.25v-82.54c1.2-.07,2.38-.2,3.57-.2,20.85-.01,41.69-.02,62.54,0,10.54.01,18.03,6.74,18.16,17.17.26,21.44.08,42.89.07,64.34,0,.36-.15.71-.31,1.39h-.02Z"/>
        <path class="cls-1" d="m142.72,211.65v27.03h35.63v11.49h-3.91c-9.49,0-18.97.06-28.46-.04-2.43-.03-3.31.8-3.3,3.23.06,16.96,0,33.92.05,50.87,0,4.2,2.45,6.4,6.99,6.43,8.11.05,16.23.02,24.34.02h4.34v11.27c-10.04,0-19.98-.01-29.93,0-5.01,0-9.6-1.49-12.49-5.56-2.13-3.01-4.3-6.79-4.42-10.29-.53-15.44-.35-30.91-.38-46.37-.03-14.84.06-29.68-.06-44.51-.02-2.76.76-3.86,3.6-3.62,2.46.21,4.95.04,8,.04h0Z"/>
        <path class="cls-1" d="m352.67,238.88v11.09c-1.4.07-2.71.19-4.03.2-13.36.01-26.73,0-40.09.02-6.08,0-8,1.95-8,8.03-.01,19.59,0,39.17,0,58.76v4.7h-11.48c-.06-1.21-.18-2.52-.18-3.83-.01-19.96-.02-39.92,0-59.88.01-11.98,7.11-19.06,19.06-19.07h44.72v-.02Z"/>
        <path class="cls-1" d="m0,321.72v-98.24c0-3.21,1.62-4.82,4.86-4.83h5.9v103.07H0Z"/>
      </g>
    </g>
  </g>
</svg>